<svg width="1544" height="298" viewBox="0 0 1544 298" fill="none" xmlns="http://www.w3.org/2000/svg">
<path d="M204.346 66.3955C204.346 66.3955 241.935 48.3312 281.072 57.6904C281.072 57.6904 288.22 61.6805 288.294 70.0231C288.294 70.0231 286.894 85.9106 272.522 83.589C272.522 83.589 254.907 77.9304 229.186 86.5636C229.186 86.5636 202.726 92.2222 188.427 112.607C188.427 112.607 175.971 125.157 181.868 150.911C181.868 150.911 188.649 188.853 237.587 186.821C237.587 186.821 274.291 185.515 300.823 154.901C300.823 154.901 309.668 147.066 320.428 154.901C320.428 154.901 327.504 162.446 323.229 171.731C323.229 171.731 301.349 200.169 252.442 212.502C252.442 212.502 214.296 223.528 181.867 203.361C181.867 203.361 157.398 187.982 150.617 158.674C150.617 158.674 140.298 129.945 160.64 99.6212C160.64 99.6212 178.525 74.7381 204.346 66.3955Z" fill="url(#paint0_linear_47_906)"/>
<path d="M363.07 231.604C363.07 231.604 325.482 249.669 286.345 240.309C286.345 240.309 279.196 236.319 279.122 227.977C279.122 227.977 280.523 212.089 294.894 214.411C294.894 214.411 312.51 220.069 338.231 211.436C338.231 211.436 364.691 205.777 378.989 185.393C378.989 185.393 391.445 172.842 385.549 147.089C385.549 147.089 378.768 109.147 329.83 111.179C329.83 111.179 293.126 112.485 266.593 143.098C266.593 143.098 257.749 150.934 246.988 143.098C246.988 143.098 239.913 135.554 244.188 126.267C244.188 126.267 266.068 97.8295 314.975 85.4968C314.975 85.4968 353.121 74.4701 385.55 94.6372C385.55 94.6372 410.019 110.016 416.8 139.325C416.8 139.325 427.118 168.053 406.776 198.377C406.776 198.379 388.89 223.261 363.07 231.604Z" fill="url(#paint1_linear_47_906)"/>
<path d="M337.337 157.722C345.176 157.722 351.531 151.367 351.531 143.528C351.531 135.689 345.176 129.334 337.337 129.334C329.498 129.334 323.143 135.689 323.143 143.528C323.143 151.367 329.498 157.722 337.337 157.722Z" fill="url(#paint2_linear_47_906)"/>
<path d="M228.608 169.506C236.447 169.506 242.802 163.151 242.802 155.311C242.802 147.472 236.447 141.117 228.608 141.117C220.769 141.117 214.414 147.472 214.414 155.311C214.414 163.151 220.769 169.506 228.608 169.506Z" fill="url(#paint3_linear_47_906)"/>
<path d="M512.818 145.167C512.818 133.93 514.937 123.468 519.176 113.779C523.415 104.022 529.538 95.5781 537.545 88.4459C545.619 81.2465 555.442 75.5946 567.015 71.4902C578.656 67.3859 591.81 65.3337 606.478 65.3337C619.329 65.3337 631.104 66.6457 641.802 69.2698C652.568 71.8266 662.56 75.7628 671.778 81.0783L657.042 105.301C654.284 103.484 651.088 101.869 647.454 100.456C643.888 99.0433 640.053 97.8658 635.949 96.9238C631.911 95.9145 627.706 95.1408 623.333 94.6025C619.026 94.0642 614.754 93.7951 610.515 93.7951C600.288 93.7951 591.171 95.0735 583.164 97.6303C575.157 100.12 568.395 103.652 562.877 108.228C557.427 112.736 553.256 118.152 550.363 124.477C547.537 130.734 546.124 137.631 546.124 145.167C546.124 152.972 547.604 160.138 550.564 166.664C553.525 173.191 557.797 178.843 563.382 183.62C569.034 188.33 575.897 192.031 583.971 194.722C592.113 197.346 601.297 198.658 611.524 198.658C616.167 198.658 620.776 198.322 625.351 197.649C629.927 196.976 634.334 196.068 638.573 194.924C642.879 193.713 647.017 192.3 650.987 190.685C654.956 189.003 658.657 187.186 662.089 185.235L676.824 209.457C668.211 214.975 658.253 219.314 646.95 222.477C635.646 225.572 623.635 227.119 610.919 227.119C594.703 227.119 580.472 225.034 568.227 220.862C555.981 216.623 545.754 210.837 537.545 203.503C529.336 196.101 523.146 187.422 518.974 177.463C514.87 167.438 512.818 156.673 512.818 145.167ZM719.516 178.069C725.235 181.299 731.022 184.226 736.875 186.85C742.796 189.406 748.919 191.593 755.244 193.41C761.569 195.159 768.196 196.505 775.127 197.447C782.124 198.389 789.559 198.86 797.431 198.86C806.919 198.86 814.993 198.254 821.654 197.043C828.315 195.765 833.732 194.049 837.903 191.896C842.142 189.676 845.204 187.051 847.088 184.024C849.039 180.996 850.014 177.699 850.014 174.133C850.014 168.414 847.626 163.906 842.849 160.609C838.071 157.244 830.704 155.562 820.746 155.562C816.372 155.562 811.763 155.865 806.919 156.471C802.074 157.009 797.162 157.614 792.183 158.287C787.272 158.96 782.393 159.599 777.549 160.205C772.772 160.743 768.264 161.012 764.025 161.012C756.96 161.012 750.164 160.104 743.637 158.287C737.178 156.471 731.425 153.746 726.379 150.112C721.4 146.479 717.43 141.937 714.47 136.487C711.509 131.037 710.029 124.679 710.029 117.412C710.029 113.106 710.601 108.833 711.745 104.594C712.956 100.355 714.84 96.3182 717.396 92.483C720.021 88.5805 723.385 84.9808 727.489 81.6838C731.594 78.3196 736.539 75.4264 742.325 73.0041C748.179 70.5819 754.908 68.6979 762.511 67.3522C770.181 65.9392 778.895 65.2328 788.651 65.2328C795.716 65.2328 802.814 65.6365 809.946 66.4439C817.079 67.184 824.009 68.2606 830.737 69.6735C837.533 71.0865 844.06 72.8023 850.317 74.8208C856.575 76.7721 862.395 78.9588 867.778 81.3811L853.749 107.218C849.308 105.267 844.531 103.484 839.417 101.869C834.303 100.187 828.954 98.7405 823.37 97.5294C817.785 96.3182 811.999 95.3762 806.01 94.7034C800.089 93.9633 794.034 93.5932 787.843 93.5932C779.029 93.5932 771.762 94.2324 766.043 95.5108C760.391 96.7892 755.883 98.4377 752.519 100.456C749.155 102.407 746.8 104.628 745.454 107.117C744.176 109.54 743.537 111.962 743.537 114.384C743.537 119.094 745.656 122.963 749.895 125.991C754.134 128.951 760.593 130.432 769.273 130.432C772.772 130.432 776.775 130.196 781.283 129.725C785.859 129.187 790.636 128.615 795.615 128.009C800.661 127.404 805.775 126.865 810.956 126.394C816.204 125.856 821.284 125.587 826.196 125.587C835.481 125.587 843.69 126.63 850.822 128.716C858.021 130.802 864.043 133.796 868.888 137.698C873.732 141.533 877.399 146.21 879.889 151.727C882.378 157.177 883.623 163.3 883.623 170.096C883.623 179.179 881.504 187.287 877.265 194.419C873.093 201.484 867.105 207.472 859.3 212.384C851.562 217.229 842.209 220.929 831.242 223.486C820.275 225.976 808.062 227.22 794.606 227.22C785.724 227.22 777.044 226.648 768.566 225.505C760.089 224.428 751.947 222.881 744.142 220.862C736.404 218.776 729.003 216.32 721.938 213.494C714.941 210.601 708.448 207.439 702.459 204.007L719.516 178.069ZM929.343 239.937C932.438 241.956 935.802 243.739 939.436 245.286C943.069 246.834 946.837 248.112 950.739 249.122C954.709 250.131 958.746 250.871 962.851 251.342C966.955 251.88 971.026 252.149 975.063 252.149C988.789 252.149 999.353 249.189 1006.75 243.268C1014.22 237.414 1017.96 228.6 1017.96 216.825V212.788C1015.33 214.605 1012.37 216.287 1009.08 217.834C1005.85 219.314 1002.35 220.593 998.579 221.669C994.878 222.746 990.942 223.587 986.77 224.193C982.666 224.731 978.494 225 974.255 225C965.172 225 957.031 223.688 949.831 221.064C942.699 218.372 936.643 214.47 931.664 209.356C926.752 204.175 922.985 197.817 920.36 190.281C917.736 182.745 916.424 174.133 916.424 164.444V105.906H946.198V156.168C946.198 170.567 948.923 181.198 954.373 188.061C959.89 194.857 968.57 198.254 980.412 198.254C988.755 198.254 996.123 196.808 1002.51 193.915C1008.97 190.954 1014.12 187.186 1017.96 182.611V105.906H1047.83V211.375C1047.83 222.746 1046.22 232.603 1042.99 240.946C1039.76 249.357 1035.05 256.321 1028.86 261.838C1022.73 267.356 1015.2 271.46 1006.25 274.151C997.3 276.91 987.14 278.289 975.769 278.289C964.667 278.289 954.306 277.112 944.684 274.757C935.062 272.402 926.248 269.206 918.241 265.169L929.343 239.937ZM1086.49 105.906H1116.36V115.999C1124.3 111.491 1131.87 108.329 1139.07 106.512C1146.34 104.695 1153.43 103.787 1160.36 103.787C1169.45 103.787 1177.86 105.133 1185.6 107.824C1193.33 110.448 1200.03 114.384 1205.68 119.632C1211.33 124.881 1215.74 131.441 1218.9 139.313C1222.13 147.118 1223.75 156.168 1223.75 166.462V225H1193.97V171.307C1193.97 164.78 1193.03 158.96 1191.15 153.847C1189.33 148.666 1186.67 144.326 1183.17 140.827C1179.74 137.261 1175.54 134.57 1170.56 132.753C1165.65 130.869 1160.13 129.927 1154.01 129.927C1150.78 129.927 1147.45 130.263 1144.01 130.936C1140.65 131.609 1137.32 132.585 1134.02 133.863C1130.79 135.074 1127.66 136.622 1124.64 138.506C1121.61 140.322 1118.85 142.408 1116.36 144.763V225H1086.49V105.906ZM1253.32 165.756C1253.32 157.009 1254.9 148.867 1258.06 141.332C1261.29 133.728 1265.97 127.168 1272.09 121.651C1278.28 116.066 1285.82 111.693 1294.7 108.53C1303.65 105.368 1313.84 103.787 1325.28 103.787C1330.26 103.787 1335.27 104.09 1340.32 104.695C1345.36 105.301 1350.21 106.175 1354.85 107.319C1359.56 108.396 1363.97 109.708 1368.07 111.255C1372.18 112.736 1375.74 114.384 1378.77 116.201L1364.94 138.708C1358.42 135.68 1352.23 133.459 1346.37 132.046C1340.59 130.633 1334.7 129.927 1328.71 129.927C1321.85 129.927 1315.69 130.835 1310.24 132.652C1304.79 134.401 1300.15 136.891 1296.31 140.12C1292.55 143.283 1289.65 147.051 1287.63 151.424C1285.68 155.731 1284.71 160.44 1284.71 165.554C1284.71 170.668 1285.75 175.411 1287.84 179.785C1289.99 184.091 1292.98 187.825 1296.82 190.988C1300.72 194.083 1305.4 196.539 1310.85 198.355C1316.36 200.105 1322.49 200.979 1329.22 200.979C1336.62 200.979 1343.58 199.936 1350.11 197.851C1356.7 195.765 1362.82 192.973 1368.48 189.474L1382.3 211.98C1378.74 214.134 1374.87 216.152 1370.7 218.036C1366.52 219.853 1362.05 221.434 1357.27 222.78C1352.56 224.125 1347.58 225.168 1342.34 225.908C1337.15 226.716 1331.77 227.119 1326.19 227.119C1314.82 227.119 1304.62 225.572 1295.61 222.477C1286.59 219.382 1278.95 215.109 1272.7 209.659C1266.44 204.142 1261.63 197.649 1258.26 190.18C1254.97 182.712 1253.32 174.57 1253.32 165.756Z" fill="#6041E8"/>
<defs>
<linearGradient id="paint0_linear_47_906" x1="236.301" y1="55" x2="236.301" y2="215.51" gradientUnits="userSpaceOnUse">
<stop stop-color="#6041E8"/>
<stop offset="0.254808" stop-color="#466AD7"/>
<stop offset="0.519231" stop-color="#6038BB"/>
<stop offset="0.769231" stop-color="#6958B3"/>
<stop offset="1" stop-color="#3A2597"/>
</linearGradient>
<linearGradient id="paint1_linear_47_906" x1="331.116" y1="82.4883" x2="331.116" y2="243" gradientUnits="userSpaceOnUse">
<stop stop-color="#6041E8"/>
<stop offset="0.254808" stop-color="#466AD7"/>
<stop offset="0.519231" stop-color="#6038BB"/>
<stop offset="0.769231" stop-color="#6958B3"/>
<stop offset="1" stop-color="#3A2597"/>
</linearGradient>
<linearGradient id="paint2_linear_47_906" x1="337.337" y1="129.334" x2="337.337" y2="157.722" gradientUnits="userSpaceOnUse">
<stop stop-color="#6041E8"/>
<stop offset="0.254808" stop-color="#466AD7"/>
<stop offset="0.519231" stop-color="#6038BB"/>
<stop offset="0.769231" stop-color="#6958B3"/>
<stop offset="1" stop-color="#3A2597"/>
</linearGradient>
<linearGradient id="paint3_linear_47_906" x1="228.608" y1="141.117" x2="228.608" y2="169.506" gradientUnits="userSpaceOnUse">
<stop stop-color="#6041E8"/>
<stop offset="0.254808" stop-color="#466AD7"/>
<stop offset="0.519231" stop-color="#6038BB"/>
<stop offset="0.769231" stop-color="#6958B3"/>
<stop offset="1" stop-color="#3A2597"/>
</linearGradient>
</defs>
</svg>
